# AST/ASF file generated using VICON BodyLanguage
# -----------------------------------------------
:version 1.10
:name VICON
:units
  mass 1.0
  length 0.45
  angle deg
:documentation
   .ast/.asf automatically generated from VICON data using
   VICON BodyBuilder and BodyLanguage model FoxedUp or BRILLIANT.MOD
:root
   order TX TY TZ RX RY RZ
   axis XYZ
   position 0 0 0  
   orientation 0 0 0 
:bonedata
  begin
     id 1 
     name lhipjoint
     direction 0.521452 -0.77106 0.36545 
     length 2.0933 
     axis 0 0 0  XYZ
  end
  begin
     id 2 
     name lfemur
     direction 0.34202 -0.939693 0  
     length 6.83441  
     axis 0 0 20  XYZ
    dof rx ry rz
    limits (-160.0 20.0)
           (-70.0 70.0)
           (-60.0 70.0)
  end
  begin
     id 3 
     name ltibia
     direction 0.34202 -0.939693 0   
     length 7.28749   
     axis 0 0 20   XYZ
    dof rx
    limits (-10.0 170.0)
  end
  begin
     id 4 
     name lfoot
     direction 0.100608 -0.276418 0.955757   
     length 1.52195   
     axis -90 7.62852e-016 20   XYZ
    dof rx rz
    limits (-45.0 90.0)
           (-70.0 20.0)
  end
  begin
     id 5 
     name ltoes
     direction 1.53558e-011 -4.21907e-011 1   
     length 0.770459   
     axis -90 7.62852e-016 20   XYZ
    dof rx
    limits (-90.0 20.0)
  end
  begin
     id 6 
     name rhipjoint
     direction -0.488071 -0.788702 0.373812   
     length 2.04648  
     axis 0 0 0  XYZ 
  end
  begin
     id 7 
     name rfemur
     direction -0.34202 -0.939693 0   
     length 6.92583   
     axis 0 0 -20   XYZ
    dof rx ry rz
    limits (-160.0 20.0)
           (-70.0 70.0)
           (-70.0 60.0)
  end
  begin
     id 8 
     name rtibia
     direction -0.34202 -0.939693 0   
     length 7.41043   
     axis 0 0 -20   XYZ
    dof rx
    limits (-10.0 170.0)
 end
 begin
     id 9 
     name rfoot
     direction -0.0784433 -0.215521 0.973343   
     length 1.67708  
     axis -90 -7.62852e-016 -20   XYZ
    dof rx rz
    limits (-45.0 90.0)
           (-20.0 70.0)
  end
  begin
     id 10 
     name rtoes
     direction -1.53551e-011 -4.21842e-011 1   
     length 0.849787   
     axis -90 -7.62852e-016 -20   XYZ
    dof rx
    limits (-90.0 20.0)
  end
  begin
     id 11 
     name lowerback
     direction -0.0122332 0.997575 -0.0685192   
     length 1.98724   
     axis 0 0 0   XYZ
    dof rx ry rz
    limits (-20.0 45.0)
           (-30.0 30.0)
           (-30.0 30.0)
  end
  begin
     id 12 
     name upperback
     direction 0.0182347 0.999724 -0.0148421   
     length 1.99029   
     axis 0 0 0   XYZ
    dof rx ry rz
    limits (-20.0 45.0)
           (-30.0 30.0)
           (-30.0 30.0)
  end
  begin
     id 13 
     name thorax
     direction 0.0242908 0.99956 0.0170184   
     length 1.99573   
     axis 0 0 0   XYZ
    dof rx ry rz
    limits (-20.0 45.0)
           (-30.0 30.0)
           (-30.0 30.0)
  end
  begin
     id 14 
     name lowerneck
     direction 0.0654488 0.985533 0.156338   
     length 1.4285   
     axis 0 0 0   XYZ
    dof rx ry rz
    limits (-20.0 45.0)
           (-30.0 30.0)
           (-30.0 30.0)
  end
  begin
     id 15 
     name upperneck
     direction -0.02953 0.998556 -0.0448842   
     length 1.44709   
     axis 0 0 0   XYZ
    dof rx ry rz
    limits (-20.0 45.0)
           (-30.0 30.0)
           (-30.0 30.0)
  end
  begin
     id 16
     name head
     direction -0.0155588 0.999386 -0.0314063  
     length 1.44689  
     axis 0 0 0   XYZ
    dof rx ry rz
    limits (-20.0 45.0)
           (-30.0 30.0)
           (-30.0 30.0)
  end
  begin
     id 17 
     name lclavicle
     direction 0.968229 0.236071 -0.0824755  
     length 3.60593  
     axis 0 0 0   XYZ
    dof ry rz
    limits (-20.0 10.0)
           (0.0 20.0)
  end
  begin
     id 18 
     name lhumerus
     direction 1 -4.48968e-011 7.8138e-029   
     length 5.06035   
     axis 180 -30 -90   XYZ
    dof rx ry rz
    limits (-60.0 90.0)
           (-90.0 90.0)
           (-90.0 90.0)
  end
  begin
     id 19
     name lradius
     direction 1 -4.48967e-011 9.02887e-028   
     length 3.1478   
     axis 180 -30 -90   XYZ
    dof rx
    limits (-10.0 170.0)
  end
  begin
     id 20
     name lwrist
     direction 1 -4.48961e-011 7.20928e-028   
     length 1.5739   
     axis -5.52449e-016 90 90   XYZ
    dof ry
    limits (-180.0 0.0)
 end
  begin
     id 21 
     name lhand
     direction 1 -4.48972e-011 1.44186e-027   
     length 0.606747   
     axis -9.20027e-016 90 90   XYZ
    dof rx rz
    limits (-90.0 90.0)
           (-45.0 45.0)
  end
  begin
     id 22 
     name lfingers
     direction 1 -4.48943e-011 2.88371e-027   
     length 0.489175   
     axis -1.84005e-015 90 90   XYZ
    dof rx
    limits (0.0 90.0)
  end
  begin
     id 23
     name lthumb
     direction 0.707107 -6.34917e-011 0.707107   
     length 0.70236   
     axis -90 45 2.85299e-015   XYZ
    dof rx rz
    limits (-45.0 45.0)
           (-45.0 45.0)
  end
  begin
     id 24 
     name rclavicle
     direction -0.978165 0.207816 0.0022268   
     length 3.35425  
     axis 0 0 0   XYZ 
    dof ry rz
    limits (-10.0 20.0)
           (-20.0 0.0)
  end
  begin
     id 25 
     name rhumerus
     direction -1 -4.48964e-011 -4.02159e-027  
     length 5.12273   
     axis 180 30 90   XYZ
    dof rx ry rz
    limits (-90.0 60.0)
           (-90.0 90.0)
           (-90.0 90.0)
  end
  begin
     id 26 
     name rradius
     direction -1 -4.48966e-011 1.62746e-027   
     length 3.422   
     axis 180 30 90   XYZ
    dof rx
    limits (-10.0 170.0)
  end
  begin
     id 27 
     name rwrist
     direction -1 -4.4896e-011 7.20928e-028   
     length 1.711   
     axis -5.52449e-016 -90 -90   XYZ
    dof ry
    limits (-180.0 0.0)
  end
  begin
     id 28
     name rhand
     direction -1 -4.48979e-011 1.44186e-027   
     length 0.704599   
     axis -9.20027e-016 -90 -90   XYZ
    dof rx rz
    limits (-90.0 90.0)
           (-45.0 45.0)
  end
  begin
     id 29
     name rfingers
     direction -1 -4.48962e-011 2.88371e-027   
     length 0.568066   
     axis -1.84005e-015 -90 -90   XYZ
    dof rx
    limits (0.0 90.0)
  end
  begin
     id 30
     name rthumb
     direction -0.707107 -6.34949e-011 0.707107   
     length 0.815633   
     axis -90 -45 -2.85299e-015   XYZ
    dof rx rz
    limits (-45.0 45.0)
           (-45.0 45.0)
  end
:hierarchy
  begin
    root lhipjoint rhipjoint lowerback
    lhipjoint lfemur
    lfemur ltibia
    ltibia lfoot
    lfoot ltoes
    rhipjoint rfemur
    rfemur rtibia
    rtibia rfoot
    rfoot rtoes
    lowerback upperback
    upperback thorax
    thorax lowerneck lclavicle rclavicle
    lowerneck upperneck
    upperneck head
    lclavicle lhumerus
    lhumerus lradius
    lradius lwrist
    lwrist lhand lthumb
    lhand lfingers
    rclavicle rhumerus
    rhumerus rradius
    rradius rwrist
    rwrist rhand rthumb
    rhand rfingers
  end

#!OML:ASF E:\id_vita\Project 1\Capture day 1\Session 1\Male1.ASF
:FULLY-SPECIFIED
:DEGREES
69
root -30.9931 15.7494 -4.16094 50.8148 84.9422 41.0953
lowerback 3.38322 -0.0987178 -7.48083
upperback 3.36596 -0.169747 -1.66394
thorax 1.61082 -0.176564 2.475
lowerneck -2.42863 0.0515268 4.16455
upperneck 18.3369 -0.360803 3.13686
head 5.95299 0.491637 0.292669
rclavicle 9.34288e-015 2.26615e-014
rhumerus -21.7225 -26.3728 -82.8674
rradius 15.3
rwrist 20.8873
rhand -24.174 32.8747
rfingers 7.12502
rthumb 2.30935 2.9075
lclavicle 9.34288e-015 2.26615e-014
lhumerus -15.2152 13.6082 84.7033
lradius 13.3936
lwrist -12.6625
lhand -12.7421 44.9137
lfingers 7.12502
lthumb 13.3418 74.4666
rfemur -18.2802 4.00435 7.79122
rtibia 30.8108
rfoot -17.1598 -16.6385
rtoes -21.1252
lfemur -17.3035 -4.03612 -18.5002
ltibia 32.9247
lfoot -27.8142 10.874
ltoes 12.9599
70
root -31.0223 15.7561 -4.16501 51.0327 84.9005 41.0376
lowerback 3.79915 0.351292 -7.55886
upperback 3.62799 0.416373 -1.80745
thorax 1.59498 0.116071 2.35672
lowerneck -2.20976 -0.325188 5.12016
upperneck 17.5766 -0.88801 2.91915
head 5.67402 0.254746 0.0332444
rclavicle -1.49089e-014 7.95139e-015
rhumerus -21.3738 -26.267 -83.3099
rradius 15.9748
rwrist 19.8488
rhand -24.1273 32.6911
rfingers 7.12502
rthumb 2.35442 2.72436
lclavicle -1.49089e-014 7.95139e-015
lhumerus -14.5264 10.4279 85.4841
lradius 13.8679
lwrist -11.0167
lhand -12.8952 45.2123
lfingers 7.12502
lthumb 13.1942 74.7747
rfemur -18.7258 3.94795 7.71939
rtibia 30.7763
rfoot -16.8673 -16.5534
rtoes -21.28
lfemur -17.8504 -3.77888 -18.5334
ltibia 33.1085
lfoot -27.6683 10.801
ltoes 12.3426
71
root -31.0532 15.7676 -4.17095 52.1676 84.8391 41.7484
lowerback 4.02658 -0.445884 -7.82251
upperback 3.91617 -0.652105 -1.49058
thorax 1.88239 -0.441344 2.85442
lowerneck -2.08594 0.483918 3.56574
upperneck 17.0454 0.297911 3.01834
head 5.48635 0.705359 0.38106
rclavicle -2.14687e-014 -9.93923e-015
rhumerus -19.8984 -22.2347 -84.6597
rradius 16.1829
rwrist 18.5928
rhand -24.1001 32.7615
rfingers 7.12502
rthumb 2.38066 2.79501
lclavicle -2.14687e-014 -9.93923e-015
lhumerus -14.309 11.7815 85.4865
lradius 14.5097
lwrist -10.3364
lhand -13.0417 45.1017
lfingers 7.12502
lthumb 13.053 74.6732
rfemur -19.3422 3.65016 7.57308
rtibia 30.8031
rfoot -16.7396 -16.0782
rtoes -20.5757
lfemur -18.565 -3.56157 -18.6435
ltibia 33.263
lfoot -27.4845 10.8844
ltoes 13.4781
72
root -31.1021 15.7824 -4.17165 48.5844 85.025 37.6812
lowerback 4.6036 -0.0980539 -7.53764
upperback 4.10181 -0.22024 -1.46243
thorax 1.70294 -0.21483 2.71759
lowerneck -2.06451 0.214111 4.17459
upperneck 16.3508 -0.0813028 2.81947
head 5.26816 0.520112 0.194606
rclavicle -7.15625e-015 1.27222e-014
rhumerus -19.4555 -21.1707 -85.2181
rradius 17.0913
rwrist 16.807
rhand -23.3733 33.1415
rfingers 7.12502
rthumb 3.08261 3.18407
lclavicle -7.15625e-015 1.27222e-014
lhumerus -13.5571 9.57269 86.0461
lradius 14.916
lwrist -9.52491
lhand -12.9678 45.2878
lfingers 7.12502
lthumb 13.1242 74.8548
rfemur -20.1695 3.6518 7.98715
rtibia 30.8533
rfoot -15.9314 -15.7788
rtoes -20.8799
lfemur -19.4245 -3.19283 -18.1725
ltibia 33.4452
lfoot -27.1466 10.8203
ltoes 20.091
73
root -31.1244 15.7875 -4.18393 51.8335 84.9085 40.6077
lowerback 4.83361 -0.565174 -7.80427
upperback 4.52615 -0.829646 -1.38964
thorax 2.09051 -0.542857 2.9566
lowerneck -2.45511 0.765537 3.3836
upperneck 15.9836 0.67268 2.87133
head 5.21824 0.823789 0.378686
rclavicle 9.93923e-015 -8.74653e-015
rhumerus -18.4116 -17.6347 -86.3863
rradius 17.8939
rwrist 14.9899
rhand -23.2382 33.0842
rfingers 7.12502
rthumb 3.21309 3.12868
lclavicle 9.93923e-015 -8.74653e-015
lhumerus -12.9297 9.98483 86.1755
lradius 15.4742
lwrist -8.96941
lhand -13.0269 45.4972
lfingers 7.12502
lthumb 13.0673 75.0679
rfemur -20.6814 2.73956 7.6836
rtibia 30.9694
rfoot -16.3279 -14.8012
rtoes -19.2603
lfemur -19.9905 -2.92128 -18.5364
ltibia 33.5915
lfoot -26.9012 10.6334
ltoes 28.2648
74
root -31.1684 15.7964 -4.18541 49.3088 85.0649 37.7456
lowerback 5.38542 -0.292003 -6.92464
upperback 4.73847 -0.452561 -1.9242
thorax 1.94049 -0.313959 1.90703
lowerneck -2.34932 0.571392 4.41082
upperneck 15.4662 0.32488 3.07228
head 5.04686 0.711467 0.25111
rclavicle 1.5704e-014 1.66979e-014
rhumerus -18.2122 -17.0731 -87.6063
rradius 18.8982
rwrist 13.6202
rhand -23.4971 32.6257
rfingers 7.12502
rthumb 2.96309 2.6665
lclavicle 1.5704e-014 1.66979e-014
lhumerus -12.3629 7.07941 85.9085
lradius 15.9535
lwrist -7.67858
lhand -13.2011 45.3851
lfingers 7.12502
lthumb 12.8994 74.9664
rfemur -21.3454 3.01868 7.98064
rtibia 31.1533
rfoot -16.0228 -14.9491
rtoes -19.3022
lfemur -20.6579 -2.66613 -18.1813
ltibia 33.7674
lfoot -26.6021 10.573
ltoes 18.2456
75
root -31.2027 15.8079 -4.18741 47.0244 84.9808 35.0844
lowerback 5.7668 -0.585429 -7.0643
upperback 5.04363 -0.854968 -1.711
thorax 2.08929 -0.528284 2.21998
lowerneck -3.04616 0.892208 3.67187
upperneck 15.6589 0.773916 2.88867
head 5.22118 0.877802 0.342825
rclavicle 1.17283e-014 2.14687e-014
rhumerus -17.4531 -13.9317 -88.3754
rradius 19.6626
rwrist 11.7394
rhand -23.0577 32.2832
rfingers 7.12502
rthumb 3.38742 2.33038
lclavicle 1.17283e-014 2.14687e-014
lhumerus -11.8282 7.65128 86.013
lradius 16.4109
lwrist -7.6363
lhand -13.0525 45.3802
lfingers 7.12502
lthumb 13.0425 74.9525
rfemur -22.0694 3.01325 8.0822
rtibia 31.3827
rfoot -16.4721 -14.3519
rtoes -17.6154
lfemur -21.2787 -2.19002 -18.0599
ltibia 33.9087
lfoot -26.3679 10.2837
ltoes 16.1026
76
root -31.2896 15.8265 -4.1802 65.8233 85.9402 52.8651
lowerback 6.52166 -0.698154 -7.15325
upperback 4.87625 -1.08186 -1.69897
thorax 1.51827 -0.620948 2.30449
lowerneck -4.45547 0.536053 4.52988
upperneck 17.5043 0.11914 2.85785
head 6.04557 0.683076 0.172047
rclavicle -7.55382e-015 1.74931e-014
rhumerus -17.5518 -13.7821 -88.4915
rradius 20.7407
rwrist 10.654
rhand -22.7202 32.3424
rfingers 7.12502
rthumb 3.71327 2.39505
lclavicle -7.55382e-015 1.74931e-014
lhumerus -11.36 5.09115 86.5249
lradius 16.855
lwrist -7.21491
lhand -12.7669 45.5399
lfingers 7.12502
lthumb 13.3179 75.0943
rfemur -23.149 2.0447 7.91491
rtibia 31.6087
rfoot -16.4945 -14.6799
rtoes -15.3622
lfemur -23.2398 -2.26948 -18.1344
ltibia 34.0821
lfoot -25.5352 8.81929
ltoes 10.1058
77
root -31.3295 15.8349 -4.18176 67.729 85.92 54.0512
lowerback 6.77945 -0.816619 -7.22222
upperback 5.01391 -1.24906 -1.67666
thorax 1.53827 -0.706359 2.37645
lowerneck -4.75345 0.775342 4.01232
upperneck 17.383 0.384733 3.41793
head 6.0573 0.814262 0.452512
rclavicle -1.03368e-014 -1.27222e-014
rhumerus -17.0477 -12.2076 -89.0052
rradius 21.513
rwrist 9.98385
rhand -22.8587 32.6508
rfingers 7.12502
rthumb 3.57951 2.70114
lclavicle -1.03368e-014 -1.27222e-014
lhumerus -10.7357 4.70795 86.5685
lradius 17.2537
lwrist -7.04792
lhand -12.5617 45.0427
lfingers 7.12502
lthumb 13.5156 74.5841
rfemur -24.2337 1.80867 7.81658
rtibia 31.8863
rfoot -16.2827 -14.6674
rtoes -15.3185
lfemur -24.3224 -2.08873 -18.1969
ltibia 34.2596
lfoot -25.2819 8.60929
ltoes 9.81288
